<svg width="24" height="24" viewBox="0 0 24 24" fill="none" xmlns="http://www.w3.org/2000/svg">
<path d="M20.1668 2.66671H17.8335V1.50004C17.8335 1.19062 17.7106 0.893875 17.4918 0.675083C17.273 0.45629 16.9762 0.333374 16.6668 0.333374C16.3574 0.333374 16.0607 0.45629 15.8419 0.675083C15.6231 0.893875 15.5002 1.19062 15.5002 1.50004V2.66671H8.50016V1.50004C8.50016 1.19062 8.37724 0.893875 8.15845 0.675083C7.93966 0.45629 7.64291 0.333374 7.3335 0.333374C7.02408 0.333374 6.72733 0.45629 6.50854 0.675083C6.28975 0.893875 6.16683 1.19062 6.16683 1.50004V2.66671H3.8335C2.90524 2.66671 2.015 3.03546 1.35862 3.69183C0.702245 4.34821 0.333496 5.23845 0.333496 6.16671V20.1667C0.333496 21.095 0.702245 21.9852 1.35862 22.6416C2.015 23.298 2.90524 23.6667 3.8335 23.6667H20.1668C21.0951 23.6667 21.9853 23.298 22.6417 22.6416C23.2981 21.9852 23.6668 21.095 23.6668 20.1667V6.16671C23.6668 5.23845 23.2981 4.34821 22.6417 3.69183C21.9853 3.03546 21.0951 2.66671 20.1668 2.66671ZM21.3335 20.1667C21.3335 20.4761 21.2106 20.7729 20.9918 20.9917C20.773 21.2105 20.4762 21.3334 20.1668 21.3334H3.8335C3.52408 21.3334 3.22733 21.2105 3.00854 20.9917C2.78975 20.7729 2.66683 20.4761 2.66683 20.1667V12H21.3335V20.1667ZM21.3335 9.66671H2.66683V6.16671C2.66683 5.85729 2.78975 5.56054 3.00854 5.34175C3.22733 5.12296 3.52408 5.00004 3.8335 5.00004H6.16683V6.16671C6.16683 6.47613 6.28975 6.77287 6.50854 6.99166C6.72733 7.21046 7.02408 7.33337 7.3335 7.33337C7.64291 7.33337 7.93966 7.21046 8.15845 6.99166C8.37724 6.77287 8.50016 6.47613 8.50016 6.16671V5.00004H15.5002V6.16671C15.5002 6.47613 15.6231 6.77287 15.8419 6.99166C16.0607 7.21046 16.3574 7.33337 16.6668 7.33337C16.9762 7.33337 17.273 7.21046 17.4918 6.99166C17.7106 6.77287 17.8335 6.47613 17.8335 6.16671V5.00004H20.1668C20.4762 5.00004 20.773 5.12296 20.9918 5.34175C21.2106 5.56054 21.3335 5.85729 21.3335 6.16671V9.66671Z" fill="#555555"/>
</svg>
