<svg width="22" height="22" viewBox="0 0 22 22" fill="none" xmlns="http://www.w3.org/2000/svg">
<path d="M11 0.03125C8.83059 0.03125 6.7099 0.674556 4.90609 1.87982C3.10229 3.08508 1.6964 4.79816 0.866201 6.80244C0.0360026 8.80672 -0.181215 11.0122 0.242016 13.1399C0.665248 15.2676 1.70992 17.2221 3.24393 18.7561C4.77793 20.2901 6.73238 21.3348 8.86011 21.758C10.9878 22.1812 13.1933 21.964 15.1976 21.1338C17.2018 20.3036 18.9149 18.8977 20.1202 17.0939C21.3254 15.2901 21.9688 13.1694 21.9688 11C21.9655 8.0919 20.8089 5.30383 18.7525 3.24749C16.6962 1.19114 13.9081 0.0344759 11 0.03125ZM11 19.5312C9.31268 19.5312 7.66325 19.0309 6.2603 18.0935C4.85734 17.156 3.76387 15.8236 3.11816 14.2648C2.47245 12.7059 2.3035 10.9905 2.63268 9.33564C2.96186 7.68073 3.77438 6.16061 4.9675 4.96749C6.16062 3.77438 7.68074 2.96186 9.33564 2.63268C10.9905 2.3035 12.7059 2.47244 14.2648 3.11815C15.8237 3.76386 17.1561 4.85733 18.0935 6.26029C19.0309 7.66325 19.5313 9.31268 19.5313 11C19.5288 13.2619 18.6292 15.4304 17.0298 17.0298C15.4304 18.6292 13.2619 19.5288 11 19.5312ZM17.9063 11C17.9063 11.3232 17.7778 11.6332 17.5493 11.8618C17.3207 12.0903 17.0107 12.2187 16.6875 12.2187H11C10.6768 12.2187 10.3668 12.0903 10.1382 11.8618C9.90966 11.6332 9.78125 11.3232 9.78125 11V5.3125C9.78125 4.98927 9.90966 4.67927 10.1382 4.45071C10.3668 4.22215 10.6768 4.09375 11 4.09375C11.3232 4.09375 11.6332 4.22215 11.8618 4.45071C12.0903 4.67927 12.2188 4.98927 12.2188 5.3125V9.78125H16.6875C17.0107 9.78125 17.3207 9.90965 17.5493 10.1382C17.7778 10.3668 17.9063 10.6768 17.9063 11Z" fill="#555555"/>
</svg>
