<svg width="17" height="26" viewBox="0 0 17 26" fill="none" xmlns="http://www.w3.org/2000/svg">
<path d="M8.08759 0C5.94341 0.00319472 3.88777 1.08037 2.3716 2.99522C0.855433 4.91008 0.00253816 7.50627 8.60437e-06 10.2143C-0.00255949 12.4273 0.569801 14.5802 1.62929 16.3429C1.62929 16.3429 1.84986 16.7096 1.88589 16.7626L8.08759 26L14.2922 16.7579C14.3246 16.7087 14.5459 16.3429 14.5459 16.3429L14.5466 16.3401C15.6056 14.5782 16.1777 12.4263 16.1752 10.2143C16.1726 7.50627 15.3198 4.91008 13.8036 2.99522C12.2874 1.08037 10.2318 0.00319472 8.08759 0ZM8.08759 13.9286C7.50593 13.9286 6.93733 13.7107 6.45369 13.3026C5.97006 12.8945 5.59311 12.3144 5.37052 11.6357C5.14793 10.957 5.08969 10.2102 5.20316 9.48966C5.31664 8.76916 5.59674 8.10734 6.00803 7.58789C6.41933 7.06844 6.94336 6.71468 7.51384 6.57137C8.08433 6.42805 8.67566 6.50161 9.21304 6.78273C9.75043 7.06386 10.2097 7.53993 10.5329 8.15074C10.856 8.76155 11.0285 9.47967 11.0285 10.2143C11.0276 11.199 10.7174 12.143 10.1661 12.8393C9.61475 13.5356 8.86728 13.9273 8.08759 13.9286Z" fill="#0C0435"/>
</svg>
