<svg width="34" height="36" viewBox="0 0 34 36" fill="none" xmlns="http://www.w3.org/2000/svg">
<path d="M32.7981 22.3812L29.3444 19.1026V14.7594C29.3404 11.7579 28.1643 8.8645 26.0433 6.63855C23.9224 4.41261 21.0073 3.01229 17.8618 2.70837V0.225494H15.3101V2.70837C12.1646 3.01229 9.24956 4.41261 7.1286 6.63855C5.00765 8.8645 3.83149 11.7579 3.82753 14.7594V19.1026L0.373822 22.3812C0.134538 22.6083 7.22604e-05 22.9163 0 23.2375V26.871C0 27.1922 0.134419 27.5002 0.373686 27.7274C0.612953 27.9545 0.937468 28.0821 1.27584 28.0821H10.2067V29.0232C10.179 30.5597 10.7495 32.0519 11.8089 33.2139C12.8684 34.3758 14.3422 35.1257 15.948 35.32C16.835 35.4035 17.7305 35.3098 18.577 35.0451C19.4235 34.7803 20.2023 34.3502 20.8633 33.7826C21.5242 33.2149 22.0526 32.5223 22.4147 31.7491C22.7767 30.9759 22.9642 30.1394 22.9652 29.2933V28.0821H31.8961C32.2344 28.0821 32.559 27.9545 32.7982 27.7274C33.0375 27.5002 33.1719 27.1922 33.1719 26.871V23.2375C33.1718 22.9163 33.0374 22.6083 32.7981 22.3812ZM20.4135 29.2933C20.4135 30.2569 20.0102 31.1811 19.2924 31.8625C18.5746 32.5439 17.6011 32.9268 16.586 32.9268C15.5708 32.9268 14.5973 32.5439 13.8795 31.8625C13.1617 31.1811 12.7584 30.2569 12.7584 29.2933V28.0821H20.4135V29.2933ZM30.6202 25.6598H2.55169V23.7389L6.00539 20.4603C6.24468 20.2332 6.37914 19.9252 6.37921 19.604V14.7594C6.37921 12.1896 7.45456 9.72513 9.3687 7.90804C11.2828 6.09095 13.879 5.07013 16.586 5.07013C19.293 5.07013 21.8891 6.09095 23.8032 7.90804C25.7174 9.72513 26.7927 12.1896 26.7927 14.7594V19.604C26.7928 19.9252 26.9272 20.2332 27.1665 20.4603L30.6202 23.7389V25.6598Z" fill="#242424"/>
</svg>
