<svg width="60" height="52" viewBox="0 0 60 52" fill="none" xmlns="http://www.w3.org/2000/svg">
<path d="M48.558 29.4295C47.8005 29.4295 47.0739 29.688 46.5383 30.1481C46.0026 30.6082 45.7017 31.2323 45.7017 31.883V32.8153L41.4743 29.1841C39.9816 27.9121 37.9642 27.1984 35.8615 27.1984C33.7589 27.1984 31.7415 27.9121 30.2488 29.1841L28.2493 30.9016L21.1656 24.817C19.6521 23.5794 17.6425 22.8892 15.5528 22.8892C13.4632 22.8892 11.4536 23.5794 9.94011 24.817L5.71271 28.4481V14.7086C5.71271 14.0579 6.01365 13.4339 6.54932 12.9738C7.08499 12.5136 7.81151 12.2552 8.56906 12.2552H28.5635C29.3211 12.2552 30.0476 11.9967 30.5833 11.5365C31.119 11.0764 31.4199 10.4524 31.4199 9.80167C31.4199 9.15097 31.119 8.52692 30.5833 8.0668C30.0476 7.60669 29.3211 7.3482 28.5635 7.3482H8.56906C6.29641 7.3482 4.11683 8.12367 2.50982 9.50402C0.90281 10.8844 0 12.7565 0 14.7086V44.1504C0 46.1025 0.90281 47.9746 2.50982 49.355C4.11683 50.7353 6.29641 51.5108 8.56906 51.5108H42.8453C45.118 51.5108 47.2975 50.7353 48.9046 49.355C50.5116 47.9746 51.4144 46.1025 51.4144 44.1504V31.883C51.4144 31.2323 51.1134 30.6082 50.5778 30.1481C50.0421 29.688 49.3156 29.4295 48.558 29.4295ZM8.56906 46.6038C7.81151 46.6038 7.08499 46.3453 6.54932 45.8852C6.01365 45.4251 5.71271 44.8011 5.71271 44.1504V35.3914L13.9961 28.2764C14.4158 27.9329 14.9732 27.7413 15.5528 27.7413C16.1325 27.7413 16.6899 27.9329 17.1096 28.2764L26.1642 36.0539L38.4465 46.6038H8.56906ZM45.7017 44.1504C45.6976 44.62 45.5173 45.076 45.1875 45.4507L32.3054 34.3364L34.3048 32.619C34.5096 32.4395 34.754 32.2969 35.0238 32.1995C35.2935 32.1021 35.5832 32.052 35.8758 32.052C36.1684 32.052 36.4581 32.1021 36.7278 32.1995C36.9976 32.2969 37.242 32.4395 37.4468 32.619L45.7017 39.7586V44.1504ZM59.1551 8.05971L50.586 0.699274C50.3144 0.475908 49.9941 0.300816 49.6434 0.184044C48.948 -0.061348 48.168 -0.061348 47.4726 0.184044C47.122 0.300816 46.8017 0.475908 46.53 0.699274L37.9609 8.05971C37.4231 8.5217 37.1209 9.14831 37.1209 9.80167C37.1209 10.455 37.4231 11.0816 37.9609 11.5436C38.4988 12.0056 39.2283 12.2652 39.989 12.2652C40.7496 12.2652 41.4791 12.0056 42.017 11.5436L45.7017 8.35412V22.0691C45.7017 22.7198 46.0026 23.3438 46.5383 23.8039C47.0739 24.264 47.8005 24.5225 48.558 24.5225C49.3156 24.5225 50.0421 24.264 50.5778 23.8039C51.1134 23.3438 51.4144 22.7198 51.4144 22.0691V8.35412L55.0991 11.5436C55.3646 11.7736 55.6805 11.9561 56.0286 12.0807C56.3767 12.2052 56.75 12.2694 57.1271 12.2694C57.5042 12.2694 57.8775 12.2052 58.2256 12.0807C58.5736 11.9561 58.8896 11.7736 59.1551 11.5436C59.4228 11.3156 59.6353 11.0442 59.7803 10.7452C59.9253 10.4462 60 10.1256 60 9.80167C60 9.47779 59.9253 9.1571 59.7803 8.85812C59.6353 8.55915 59.4228 8.28779 59.1551 8.05971Z" fill="#555555"/>
</svg>
